<?xml version="1.0" encoding="UTF-8" standalone="no"?>
<!DOCTYPE svg PUBLIC "-//W3C//DTD SVG 1.1//EN"
 "http://www.w3.org/Graphics/SVG/1.1/DTD/svg11.dtd">
<!-- Generated by graphviz version 2.38.0 (20140413.2041)
 -->
<!-- Title: snakemake_dag Pages: 1 -->
<svg width="751pt" height="476pt"
 viewBox="0.00 0.00 750.50 476.00" xmlns="http://www.w3.org/2000/svg" xmlns:xlink="http://www.w3.org/1999/xlink">
<g id="graph0" class="graph" transform="scale(1 1) rotate(0) translate(4 472)">
<title>snakemake_dag</title>
<polygon fill="white" stroke="none" points="-4,4 -4,-472 746.5,-472 746.5,4 -4,4"/>
<!-- 0 -->
<g id="node1" class="node"><title>0</title>
<path fill="none" stroke="#56d8a9" stroke-width="2" d="M412.5,-36C412.5,-36 382.5,-36 382.5,-36 376.5,-36 370.5,-30 370.5,-24 370.5,-24 370.5,-12 370.5,-12 370.5,-6 376.5,-0 382.5,-0 382.5,-0 412.5,-0 412.5,-0 418.5,-0 424.5,-6 424.5,-12 424.5,-12 424.5,-24 424.5,-24 424.5,-30 418.5,-36 412.5,-36"/>
<text text-anchor="middle" x="397.5" y="-15.5" font-family="sans" font-size="10.00">all</text>
</g>
<!-- 1 -->
<g id="node2" class="node"><title>1</title>
<path fill="none" stroke="#d86e56" stroke-width="2" d="M325,-108C325,-108 242,-108 242,-108 236,-108 230,-102 230,-96 230,-96 230,-84 230,-84 230,-78 236,-72 242,-72 242,-72 325,-72 325,-72 331,-72 337,-78 337,-84 337,-84 337,-96 337,-96 337,-102 331,-108 325,-108"/>
<text text-anchor="middle" x="283.5" y="-87.5" font-family="sans" font-size="10.00">abricate_summary</text>
</g>
<!-- 1&#45;&gt;0 -->
<g id="edge3" class="edge"><title>1&#45;&gt;0</title>
<path fill="none" stroke="grey" stroke-width="2" d="M311.388,-71.8761C326.516,-62.587 345.383,-51.0015 361.599,-41.0447"/>
<polygon fill="grey" stroke="grey" stroke-width="2" points="363.603,-43.9209 370.294,-35.7056 359.941,-37.9557 363.603,-43.9209"/>
</g>
<!-- 2 -->
<g id="node3" class="node"><title>2</title>
<path fill="none" stroke="#56b9d8" stroke-width="2" d="M69,-180C69,-180 12,-180 12,-180 6,-180 0,-174 0,-168 0,-168 0,-156 0,-156 0,-150 6,-144 12,-144 12,-144 69,-144 69,-144 75,-144 81,-150 81,-156 81,-156 81,-168 81,-168 81,-174 75,-180 69,-180"/>
<text text-anchor="middle" x="40.5" y="-159.5" font-family="sans" font-size="10.00">multiqc_fastp</text>
</g>
<!-- 2&#45;&gt;0 -->
<g id="edge5" class="edge"><title>2&#45;&gt;0</title>
<path fill="none" stroke="grey" stroke-width="2" d="M63.7747,-143.885C91.8168,-124 140.979,-91.4396 187.5,-72 245.674,-47.6911 317.732,-32.4889 360.53,-24.8926"/>
<polygon fill="grey" stroke="grey" stroke-width="2" points="361.239,-28.322 370.495,-23.1678 360.045,-21.4245 361.239,-28.322"/>
</g>
<!-- 3 -->
<g id="node4" class="node"><title>3</title>
<path fill="none" stroke="#5673d8" stroke-width="2" d="M427.5,-108C427.5,-108 367.5,-108 367.5,-108 361.5,-108 355.5,-102 355.5,-96 355.5,-96 355.5,-84 355.5,-84 355.5,-78 361.5,-72 367.5,-72 367.5,-72 427.5,-72 427.5,-72 433.5,-72 439.5,-78 439.5,-84 439.5,-84 439.5,-96 439.5,-96 439.5,-102 433.5,-108 427.5,-108"/>
<text text-anchor="middle" x="397.5" y="-87.5" font-family="sans" font-size="10.00">multiqc_quast</text>
</g>
<!-- 3&#45;&gt;0 -->
<g id="edge7" class="edge"><title>3&#45;&gt;0</title>
<path fill="none" stroke="grey" stroke-width="2" d="M397.5,-71.6966C397.5,-63.9827 397.5,-54.7125 397.5,-46.1124"/>
<polygon fill="grey" stroke="grey" stroke-width="2" points="401,-46.1043 397.5,-36.1043 394,-46.1044 401,-46.1043"/>
</g>
<!-- 4 -->
<g id="node5" class="node"><title>4</title>
<path fill="none" stroke="#d88556" stroke-width="2" d="M220.5,-252C220.5,-252 182.5,-252 182.5,-252 176.5,-252 170.5,-246 170.5,-240 170.5,-240 170.5,-228 170.5,-228 170.5,-222 176.5,-216 182.5,-216 182.5,-216 220.5,-216 220.5,-216 226.5,-216 232.5,-222 232.5,-228 232.5,-228 232.5,-240 232.5,-240 232.5,-246 226.5,-252 220.5,-252"/>
<text text-anchor="middle" x="201.5" y="-231.5" font-family="sans" font-size="10.00">summary</text>
</g>
<!-- 4&#45;&gt;0 -->
<g id="edge6" class="edge"><title>4&#45;&gt;0</title>
<path fill="none" stroke="grey" stroke-width="2" d="M197.952,-215.602C192.434,-183.251 185.742,-113.378 220.5,-72 254.853,-31.1035 319.397,-20.9853 360.325,-18.9089"/>
<polygon fill="grey" stroke="grey" stroke-width="2" points="360.578,-22.402 370.441,-18.5344 360.319,-15.4068 360.578,-22.402"/>
</g>
<!-- 5 -->
<g id="node6" class="node"><title>5</title>
<path fill="none" stroke="#56d87b" stroke-width="2" d="M537.5,-108C537.5,-108 507.5,-108 507.5,-108 501.5,-108 495.5,-102 495.5,-96 495.5,-96 495.5,-84 495.5,-84 495.5,-78 501.5,-72 507.5,-72 507.5,-72 537.5,-72 537.5,-72 543.5,-72 549.5,-78 549.5,-84 549.5,-84 549.5,-96 549.5,-96 549.5,-102 543.5,-108 537.5,-108"/>
<text text-anchor="middle" x="522.5" y="-87.5" font-family="sans" font-size="10.00">plottree</text>
</g>
<!-- 5&#45;&gt;0 -->
<g id="edge4" class="edge"><title>5&#45;&gt;0</title>
<path fill="none" stroke="grey" stroke-width="2" d="M495.377,-73.811C477.195,-63.6291 453.057,-50.1118 433.301,-39.0488"/>
<polygon fill="grey" stroke="grey" stroke-width="2" points="435.005,-35.9916 424.57,-34.1593 431.585,-42.0992 435.005,-35.9916"/>
</g>
<!-- 6 -->
<g id="node7" class="node"><title>6</title>
<path fill="none" stroke="#afd856" stroke-width="2" d="M508.5,-252C508.5,-252 478.5,-252 478.5,-252 472.5,-252 466.5,-246 466.5,-240 466.5,-240 466.5,-228 466.5,-228 466.5,-222 472.5,-216 478.5,-216 478.5,-216 508.5,-216 508.5,-216 514.5,-216 520.5,-222 520.5,-228 520.5,-228 520.5,-240 520.5,-240 520.5,-246 514.5,-252 508.5,-252"/>
<text text-anchor="middle" x="493.5" y="-231.5" font-family="sans" font-size="10.00">zip</text>
</g>
<!-- 6&#45;&gt;0 -->
<g id="edge1" class="edge"><title>6&#45;&gt;0</title>
<path fill="none" stroke="grey" stroke-width="2" d="M491.527,-215.96C487.4,-185.369 475.869,-119.872 448.5,-72 442.471,-61.4538 433.88,-51.4267 425.463,-42.9893"/>
<polygon fill="grey" stroke="grey" stroke-width="2" points="427.823,-40.4027 418.181,-36.0108 422.979,-45.4567 427.823,-40.4027"/>
</g>
<!-- 7 -->
<g id="node8" class="node"><title>7</title>
<path fill="none" stroke="#78d856" stroke-width="2" d="M611.5,-180C611.5,-180 579.5,-180 579.5,-180 573.5,-180 567.5,-174 567.5,-168 567.5,-168 567.5,-156 567.5,-156 567.5,-150 573.5,-144 579.5,-144 579.5,-144 611.5,-144 611.5,-144 617.5,-144 623.5,-150 623.5,-156 623.5,-156 623.5,-168 623.5,-168 623.5,-174 617.5,-180 611.5,-180"/>
<text text-anchor="middle" x="595.5" y="-159.5" font-family="sans" font-size="10.00">snpdists</text>
</g>
<!-- 7&#45;&gt;0 -->
<g id="edge2" class="edge"><title>7&#45;&gt;0</title>
<path fill="none" stroke="grey" stroke-width="2" d="M592.771,-143.81C588.723,-123.852 579.242,-91.2228 558.5,-72 524.221,-40.2312 470.507,-27.4816 434.667,-22.3799"/>
<polygon fill="grey" stroke="grey" stroke-width="2" points="434.978,-18.8911 424.612,-21.0817 434.081,-25.8334 434.978,-18.8911"/>
</g>
<!-- 8 -->
<g id="node9" class="node"><title>8</title>
<path fill="none" stroke="#56d8c9" stroke-width="2" d="M299.5,-324C299.5,-324 267.5,-324 267.5,-324 261.5,-324 255.5,-318 255.5,-312 255.5,-312 255.5,-300 255.5,-300 255.5,-294 261.5,-288 267.5,-288 267.5,-288 299.5,-288 299.5,-288 305.5,-288 311.5,-294 311.5,-300 311.5,-300 311.5,-312 311.5,-312 311.5,-318 305.5,-324 299.5,-324"/>
<text text-anchor="middle" x="283.5" y="-303.5" font-family="sans" font-size="10.00">abricate</text>
</g>
<!-- 8&#45;&gt;1 -->
<g id="edge8" class="edge"><title>8&#45;&gt;1</title>
<path fill="none" stroke="grey" stroke-width="2" d="M283.5,-287.849C283.5,-250.832 283.5,-163.181 283.5,-118.386"/>
<polygon fill="grey" stroke="grey" stroke-width="2" points="287,-118.232 283.5,-108.232 280,-118.232 287,-118.232"/>
</g>
<!-- 8&#45;&gt;4 -->
<g id="edge12" class="edge"><title>8&#45;&gt;4</title>
<path fill="none" stroke="grey" stroke-width="2" d="M263.23,-287.697C253.002,-278.965 240.439,-268.24 229.322,-258.75"/>
<polygon fill="grey" stroke="grey" stroke-width="2" points="231.415,-255.935 221.537,-252.104 226.87,-261.259 231.415,-255.935"/>
</g>
<!-- 9 -->
<g id="node10" class="node"><title>9</title>
<path fill="none" stroke="#97d856" stroke-width="2" d="M108.5,-468C108.5,-468 78.5,-468 78.5,-468 72.5,-468 66.5,-462 66.5,-456 66.5,-456 66.5,-444 66.5,-444 66.5,-438 72.5,-432 78.5,-432 78.5,-432 108.5,-432 108.5,-432 114.5,-432 120.5,-438 120.5,-444 120.5,-444 120.5,-456 120.5,-456 120.5,-462 114.5,-468 108.5,-468"/>
<text text-anchor="middle" x="93.5" y="-447.5" font-family="sans" font-size="10.00">fastp</text>
</g>
<!-- 9&#45;&gt;2 -->
<g id="edge9" class="edge"><title>9&#45;&gt;2</title>
<path fill="none" stroke="grey" stroke-width="2" d="M71.916,-431.738C61.8986,-422.352 51.0075,-409.841 45.5,-396 17.7234,-326.192 27.6116,-235.066 35.1385,-190.276"/>
<polygon fill="grey" stroke="grey" stroke-width="2" points="38.6289,-190.637 36.9297,-180.18 31.7366,-189.414 38.6289,-190.637"/>
</g>
<!-- 9&#45;&gt;4 -->
<g id="edge11" class="edge"><title>9&#45;&gt;4</title>
<path fill="none" stroke="grey" stroke-width="2" d="M77.4631,-431.846C69.4864,-422.124 60.675,-409.274 56.5,-396 41.7175,-349.001 48.1133,-324.232 81.5,-288 102.346,-265.378 134.6,-251.873 160.421,-244.162"/>
<polygon fill="grey" stroke="grey" stroke-width="2" points="161.636,-247.457 170.322,-241.39 159.749,-240.716 161.636,-247.457"/>
</g>
<!-- 11 -->
<g id="node12" class="node"><title>11</title>
<path fill="none" stroke="#d85656" stroke-width="2" d="M109,-396C109,-396 78,-396 78,-396 72,-396 66,-390 66,-384 66,-384 66,-372 66,-372 66,-366 72,-360 78,-360 78,-360 109,-360 109,-360 115,-360 121,-366 121,-372 121,-372 121,-384 121,-384 121,-390 115,-396 109,-396"/>
<text text-anchor="middle" x="93.5" y="-375.5" font-family="sans" font-size="10.00">kraken2</text>
</g>
<!-- 9&#45;&gt;11 -->
<g id="edge24" class="edge"><title>9&#45;&gt;11</title>
<path fill="none" stroke="grey" stroke-width="2" d="M93.5,-431.697C93.5,-423.983 93.5,-414.712 93.5,-406.112"/>
<polygon fill="grey" stroke="grey" stroke-width="2" points="97.0001,-406.104 93.5,-396.104 90.0001,-406.104 97.0001,-406.104"/>
</g>
<!-- 13 -->
<g id="node14" class="node"><title>13</title>
<path fill="none" stroke="#c6d856" stroke-width="2" d="M153,-324C153,-324 116,-324 116,-324 110,-324 104,-318 104,-312 104,-312 104,-300 104,-300 104,-294 110,-288 116,-288 116,-288 153,-288 153,-288 159,-288 165,-294 165,-300 165,-300 165,-312 165,-312 165,-318 159,-324 153,-324"/>
<text text-anchor="middle" x="134.5" y="-303.5" font-family="sans" font-size="10.00">coverage</text>
</g>
<!-- 9&#45;&gt;13 -->
<g id="edge26" class="edge"><title>9&#45;&gt;13</title>
<path fill="none" stroke="grey" stroke-width="2" d="M108.816,-431.679C116.493,-421.908 125.078,-409.065 129.5,-396 136.229,-376.12 137.232,-352.325 136.687,-334.343"/>
<polygon fill="grey" stroke="grey" stroke-width="2" points="140.178,-334.064 136.202,-324.243 133.186,-334.399 140.178,-334.064"/>
</g>
<!-- 19 -->
<g id="node20" class="node"><title>19</title>
<path fill="none" stroke="#56a2d8" stroke-width="2" d="M371.5,-396C371.5,-396 341.5,-396 341.5,-396 335.5,-396 329.5,-390 329.5,-384 329.5,-384 329.5,-372 329.5,-372 329.5,-366 335.5,-360 341.5,-360 341.5,-360 371.5,-360 371.5,-360 377.5,-360 383.5,-366 383.5,-372 383.5,-372 383.5,-384 383.5,-384 383.5,-390 377.5,-396 371.5,-396"/>
<text text-anchor="middle" x="356.5" y="-375.5" font-family="sans" font-size="10.00">skesa</text>
</g>
<!-- 9&#45;&gt;19 -->
<g id="edge33" class="edge"><title>9&#45;&gt;19</title>
<path fill="none" stroke="grey" stroke-width="2" d="M120.655,-441.772C168.124,-429.138 266.222,-403.028 319.728,-388.787"/>
<polygon fill="grey" stroke="grey" stroke-width="2" points="320.729,-392.143 329.493,-386.188 318.929,-385.378 320.729,-392.143"/>
</g>
<!-- 10 -->
<g id="node11" class="node"><title>10</title>
<path fill="none" stroke="#d8d356" stroke-width="2" d="M371.5,-324C371.5,-324 341.5,-324 341.5,-324 335.5,-324 329.5,-318 329.5,-312 329.5,-312 329.5,-300 329.5,-300 329.5,-294 335.5,-288 341.5,-288 341.5,-288 371.5,-288 371.5,-288 377.5,-288 383.5,-294 383.5,-300 383.5,-300 383.5,-312 383.5,-312 383.5,-318 377.5,-324 371.5,-324"/>
<text text-anchor="middle" x="356.5" y="-303.5" font-family="sans" font-size="10.00">quast</text>
</g>
<!-- 10&#45;&gt;3 -->
<g id="edge10" class="edge"><title>10&#45;&gt;3</title>
<path fill="none" stroke="grey" stroke-width="2" d="M359.786,-287.849C366.893,-250.753 383.742,-162.81 392.307,-118.103"/>
<polygon fill="grey" stroke="grey" stroke-width="2" points="395.754,-118.712 394.198,-108.232 388.879,-117.395 395.754,-118.712"/>
</g>
<!-- 10&#45;&gt;4 -->
<g id="edge14" class="edge"><title>10&#45;&gt;4</title>
<path fill="none" stroke="grey" stroke-width="2" d="M329.403,-292.126C326.404,-290.724 323.39,-289.326 320.5,-288 294.599,-276.118 265.367,-263.094 242.357,-252.929"/>
<polygon fill="grey" stroke="grey" stroke-width="2" points="243.466,-249.593 232.904,-248.76 240.641,-255.998 243.466,-249.593"/>
</g>
<!-- 11&#45;&gt;4 -->
<g id="edge13" class="edge"><title>11&#45;&gt;4</title>
<path fill="none" stroke="grey" stroke-width="2" d="M88.7232,-359.787C84.4829,-340.693 80.8515,-309.718 94.5,-288 109.026,-264.886 136.921,-251.527 160.587,-244.004"/>
<polygon fill="grey" stroke="grey" stroke-width="2" points="161.805,-247.294 170.419,-241.126 159.839,-240.576 161.805,-247.294"/>
</g>
<!-- 12 -->
<g id="node13" class="node"><title>12</title>
<path fill="none" stroke="#56d892" stroke-width="2" d="M225.5,-324C225.5,-324 195.5,-324 195.5,-324 189.5,-324 183.5,-318 183.5,-312 183.5,-312 183.5,-300 183.5,-300 183.5,-294 189.5,-288 195.5,-288 195.5,-288 225.5,-288 225.5,-288 231.5,-288 237.5,-294 237.5,-300 237.5,-300 237.5,-312 237.5,-312 237.5,-318 231.5,-324 225.5,-324"/>
<text text-anchor="middle" x="210.5" y="-303.5" font-family="sans" font-size="10.00">mlst</text>
</g>
<!-- 12&#45;&gt;4 -->
<g id="edge16" class="edge"><title>12&#45;&gt;4</title>
<path fill="none" stroke="grey" stroke-width="2" d="M208.275,-287.697C207.283,-279.983 206.092,-270.712 204.986,-262.112"/>
<polygon fill="grey" stroke="grey" stroke-width="2" points="208.446,-261.576 203.699,-252.104 201.503,-262.469 208.446,-261.576"/>
</g>
<!-- 13&#45;&gt;4 -->
<g id="edge15" class="edge"><title>13&#45;&gt;4</title>
<path fill="none" stroke="grey" stroke-width="2" d="M151.062,-287.697C159.175,-279.22 169.088,-268.864 177.971,-259.583"/>
<polygon fill="grey" stroke="grey" stroke-width="2" points="180.743,-261.749 185.129,-252.104 175.686,-256.908 180.743,-261.749"/>
</g>
<!-- 14 -->
<g id="node15" class="node"><title>14</title>
<path fill="none" stroke="#56d0d8" stroke-width="2" d="M537.5,-180C537.5,-180 507.5,-180 507.5,-180 501.5,-180 495.5,-174 495.5,-168 495.5,-168 495.5,-156 495.5,-156 495.5,-150 501.5,-144 507.5,-144 507.5,-144 537.5,-144 537.5,-144 543.5,-144 549.5,-150 549.5,-156 549.5,-156 549.5,-168 549.5,-168 549.5,-174 543.5,-180 537.5,-180"/>
<text text-anchor="middle" x="522.5" y="-159.5" font-family="sans" font-size="10.00">iqtree</text>
</g>
<!-- 14&#45;&gt;5 -->
<g id="edge17" class="edge"><title>14&#45;&gt;5</title>
<path fill="none" stroke="grey" stroke-width="2" d="M522.5,-143.697C522.5,-135.983 522.5,-126.712 522.5,-118.112"/>
<polygon fill="grey" stroke="grey" stroke-width="2" points="526,-118.104 522.5,-108.104 519,-118.104 526,-118.104"/>
</g>
<!-- 15 -->
<g id="node16" class="node"><title>15</title>
<path fill="none" stroke="#568ad8" stroke-width="2" d="M465,-324C465,-324 414,-324 414,-324 408,-324 402,-318 402,-312 402,-312 402,-300 402,-300 402,-294 408,-288 414,-288 414,-288 465,-288 465,-288 471,-288 477,-294 477,-300 477,-300 477,-312 477,-312 477,-318 471,-324 465,-324"/>
<text text-anchor="middle" x="439.5" y="-303.5" font-family="sans" font-size="10.00">poppunk_K2</text>
</g>
<!-- 15&#45;&gt;6 -->
<g id="edge19" class="edge"><title>15&#45;&gt;6</title>
<path fill="none" stroke="grey" stroke-width="2" d="M452.848,-287.697C459.257,-279.389 467.058,-269.277 474.106,-260.141"/>
<polygon fill="grey" stroke="grey" stroke-width="2" points="476.968,-262.16 480.305,-252.104 471.426,-257.884 476.968,-262.16"/>
</g>
<!-- 16 -->
<g id="node17" class="node"><title>16</title>
<path fill="none" stroke="#56d863" stroke-width="2" d="M651,-324C651,-324 600,-324 600,-324 594,-324 588,-318 588,-312 588,-312 588,-300 588,-300 588,-294 594,-288 600,-288 600,-288 651,-288 651,-288 657,-288 663,-294 663,-300 663,-300 663,-312 663,-312 663,-318 657,-324 651,-324"/>
<text text-anchor="middle" x="625.5" y="-303.5" font-family="sans" font-size="10.00">poppunk_K3</text>
</g>
<!-- 16&#45;&gt;6 -->
<g id="edge18" class="edge"><title>16&#45;&gt;6</title>
<path fill="none" stroke="grey" stroke-width="2" d="M593.209,-287.876C573.969,-277.673 549.505,-264.7 529.625,-254.157"/>
<polygon fill="grey" stroke="grey" stroke-width="2" points="531.038,-250.945 520.563,-249.352 527.758,-257.129 531.038,-250.945"/>
</g>
<!-- 17 -->
<g id="node18" class="node"><title>17</title>
<path fill="none" stroke="#d8a456" stroke-width="2" d="M558,-324C558,-324 507,-324 507,-324 501,-324 495,-318 495,-312 495,-312 495,-300 495,-300 495,-294 501,-288 507,-288 507,-288 558,-288 558,-288 564,-288 570,-294 570,-300 570,-300 570,-312 570,-312 570,-318 564,-324 558,-324"/>
<text text-anchor="middle" x="532.5" y="-303.5" font-family="sans" font-size="10.00">poppunk_K4</text>
</g>
<!-- 17&#45;&gt;6 -->
<g id="edge20" class="edge"><title>17&#45;&gt;6</title>
<path fill="none" stroke="grey" stroke-width="2" d="M522.86,-287.697C518.373,-279.644 512.941,-269.894 507.976,-260.982"/>
<polygon fill="grey" stroke="grey" stroke-width="2" points="510.954,-259.137 503.03,-252.104 504.839,-262.544 510.954,-259.137"/>
</g>
<!-- 18 -->
<g id="node19" class="node"><title>18</title>
<path fill="none" stroke="#d8bc56" stroke-width="2" d="M614,-252C614,-252 577,-252 577,-252 571,-252 565,-246 565,-240 565,-240 565,-228 565,-228 565,-222 571,-216 577,-216 577,-216 614,-216 614,-216 620,-216 626,-222 626,-228 626,-228 626,-240 626,-240 626,-246 620,-252 614,-252"/>
<text text-anchor="middle" x="595.5" y="-231.5" font-family="sans" font-size="10.00">ska_align</text>
</g>
<!-- 18&#45;&gt;7 -->
<g id="edge21" class="edge"><title>18&#45;&gt;7</title>
<path fill="none" stroke="grey" stroke-width="2" d="M595.5,-215.697C595.5,-207.983 595.5,-198.712 595.5,-190.112"/>
<polygon fill="grey" stroke="grey" stroke-width="2" points="599,-190.104 595.5,-180.104 592,-190.104 599,-190.104"/>
</g>
<!-- 18&#45;&gt;14 -->
<g id="edge28" class="edge"><title>18&#45;&gt;14</title>
<path fill="none" stroke="grey" stroke-width="2" d="M577.455,-215.697C568.438,-207.05 557.382,-196.449 547.557,-187.027"/>
<polygon fill="grey" stroke="grey" stroke-width="2" points="549.978,-184.499 540.337,-180.104 545.133,-189.552 549.978,-184.499"/>
</g>
<!-- 19&#45;&gt;8 -->
<g id="edge22" class="edge"><title>19&#45;&gt;8</title>
<path fill="none" stroke="grey" stroke-width="2" d="M338.455,-359.697C329.438,-351.05 318.382,-340.449 308.557,-331.027"/>
<polygon fill="grey" stroke="grey" stroke-width="2" points="310.978,-328.499 301.337,-324.104 306.133,-333.552 310.978,-328.499"/>
</g>
<!-- 19&#45;&gt;10 -->
<g id="edge23" class="edge"><title>19&#45;&gt;10</title>
<path fill="none" stroke="grey" stroke-width="2" d="M356.5,-359.697C356.5,-351.983 356.5,-342.712 356.5,-334.112"/>
<polygon fill="grey" stroke="grey" stroke-width="2" points="360,-334.104 356.5,-324.104 353,-334.104 360,-334.104"/>
</g>
<!-- 19&#45;&gt;12 -->
<g id="edge25" class="edge"><title>19&#45;&gt;12</title>
<path fill="none" stroke="grey" stroke-width="2" d="M329.381,-363.998C306.172,-352.87 272.558,-336.754 246.991,-324.496"/>
<polygon fill="grey" stroke="grey" stroke-width="2" points="248.5,-321.338 237.97,-320.17 245.474,-327.65 248.5,-321.338"/>
</g>
<!-- 19&#45;&gt;13 -->
<g id="edge27" class="edge"><title>19&#45;&gt;13</title>
<path fill="none" stroke="grey" stroke-width="2" d="M329.353,-370.171C295.324,-361.38 235.107,-345.061 175.007,-323.971"/>
<polygon fill="grey" stroke="grey" stroke-width="2" points="175.96,-320.595 165.366,-320.545 173.617,-327.191 175.96,-320.595"/>
</g>
<!-- 19&#45;&gt;15 -->
<g id="edge29" class="edge"><title>19&#45;&gt;15</title>
<path fill="none" stroke="grey" stroke-width="2" d="M377.017,-359.697C387.369,-350.965 400.086,-340.24 411.339,-330.75"/>
<polygon fill="grey" stroke="grey" stroke-width="2" points="413.831,-333.227 419.219,-324.104 409.318,-327.876 413.831,-333.227"/>
</g>
<!-- 19&#45;&gt;16 -->
<g id="edge30" class="edge"><title>19&#45;&gt;16</title>
<path fill="none" stroke="grey" stroke-width="2" d="M383.759,-371.528C424.166,-363.194 502.453,-346.197 578.211,-323.906"/>
<polygon fill="grey" stroke="grey" stroke-width="2" points="579.329,-327.225 587.914,-321.017 577.331,-320.516 579.329,-327.225"/>
</g>
<!-- 19&#45;&gt;17 -->
<g id="edge31" class="edge"><title>19&#45;&gt;17</title>
<path fill="none" stroke="grey" stroke-width="2" d="M383.614,-366.216C410.733,-355.43 452.981,-338.627 485.556,-325.671"/>
<polygon fill="grey" stroke="grey" stroke-width="2" points="486.898,-328.904 494.896,-321.956 484.311,-322.4 486.898,-328.904"/>
</g>
<!-- 20 -->
<g id="node21" class="node"><title>20</title>
<path fill="none" stroke="#61d856" stroke-width="2" d="M730.5,-324C730.5,-324 692.5,-324 692.5,-324 686.5,-324 680.5,-318 680.5,-312 680.5,-312 680.5,-300 680.5,-300 680.5,-294 686.5,-288 692.5,-288 692.5,-288 730.5,-288 730.5,-288 736.5,-288 742.5,-294 742.5,-300 742.5,-300 742.5,-312 742.5,-312 742.5,-318 736.5,-324 730.5,-324"/>
<text text-anchor="middle" x="711.5" y="-303.5" font-family="sans" font-size="10.00">ska_fasta</text>
</g>
<!-- 19&#45;&gt;20 -->
<g id="edge34" class="edge"><title>19&#45;&gt;20</title>
<path fill="none" stroke="grey" stroke-width="2" d="M383.527,-374.614C437.047,-369.433 560.197,-355.242 670.685,-323.864"/>
<polygon fill="grey" stroke="grey" stroke-width="2" points="671.68,-327.22 680.312,-321.077 669.733,-320.496 671.68,-327.22"/>
</g>
<!-- 20&#45;&gt;18 -->
<g id="edge32" class="edge"><title>20&#45;&gt;18</title>
<path fill="none" stroke="grey" stroke-width="2" d="M683.123,-287.876C667.956,-278.724 649.095,-267.342 632.761,-257.485"/>
<polygon fill="grey" stroke="grey" stroke-width="2" points="634.356,-254.36 623.986,-252.19 630.739,-260.353 634.356,-254.36"/>
</g>
</g>
</svg>
