<?xml version="1.0" encoding="UTF-8" standalone="no"?>
<!DOCTYPE svg PUBLIC "-//W3C//DTD SVG 1.1//EN"
 "http://www.w3.org/Graphics/SVG/1.1/DTD/svg11.dtd">
<!-- Generated by graphviz version 2.40.1 (20161225.0304)
 -->
<!-- Title: snakemake_dag Pages: 1 -->
<svg width="1119pt" height="476pt"
 viewBox="0.00 0.00 1118.50 476.00" xmlns="http://www.w3.org/2000/svg" xmlns:xlink="http://www.w3.org/1999/xlink">
<g id="graph0" class="graph" transform="scale(1 1) rotate(0) translate(4 472)">
<title>snakemake_dag</title>
<polygon fill="#ffffff" stroke="transparent" points="-4,4 -4,-472 1114.5,-472 1114.5,4 -4,4"/>
<!-- 0 -->
<g id="node1" class="node">
<title>0</title>
<path fill="none" stroke="#78d856" stroke-width="2" d="M505,-36C505,-36 475,-36 475,-36 469,-36 463,-30 463,-24 463,-24 463,-12 463,-12 463,-6 469,0 475,0 475,0 505,0 505,0 511,0 517,-6 517,-12 517,-12 517,-24 517,-24 517,-30 511,-36 505,-36"/>
<text text-anchor="middle" x="490" y="-15.5" font-family="sans" font-size="10.00" fill="#000000">all</text>
</g>
<!-- 1 -->
<g id="node2" class="node">
<title>1</title>
<path fill="none" stroke="#56d892" stroke-width="2" d="M930,-468C930,-468 900,-468 900,-468 894,-468 888,-462 888,-456 888,-456 888,-444 888,-444 888,-438 894,-432 900,-432 900,-432 930,-432 930,-432 936,-432 942,-438 942,-444 942,-444 942,-456 942,-456 942,-462 936,-468 930,-468"/>
<text text-anchor="middle" x="915" y="-447.5" font-family="sans" font-size="10.00" fill="#000000">fastp</text>
</g>
<!-- 1&#45;&gt;0 -->
<g id="edge13" class="edge">
<title>1&#45;&gt;0</title>
<path fill="none" stroke="#c0c0c0" stroke-width="2" d="M887.6159,-448.6563C735.3711,-440.8321 0,-398.2644 0,-306 0,-306 0,-306 0,-162 0,-114.8889 16.3115,-97.3827 56,-72 121.518,-30.0981 360.0882,-20.6787 452.7987,-18.5874"/>
<polygon fill="#c0c0c0" stroke="#c0c0c0" stroke-width="2" points="452.9251,-22.0857 462.8496,-18.3769 452.7785,-15.0872 452.9251,-22.0857"/>
</g>
<!-- 2 -->
<g id="node3" class="node">
<title>2</title>
<path fill="none" stroke="#56d8a9" stroke-width="2" d="M1035,-180C1035,-180 1003,-180 1003,-180 997,-180 991,-174 991,-168 991,-168 991,-156 991,-156 991,-150 997,-144 1003,-144 1003,-144 1035,-144 1035,-144 1041,-144 1047,-150 1047,-156 1047,-156 1047,-168 1047,-168 1047,-174 1041,-180 1035,-180"/>
<text text-anchor="middle" x="1019" y="-159.5" font-family="sans" font-size="10.00" fill="#000000">kraken2</text>
</g>
<!-- 1&#45;&gt;2 -->
<g id="edge21" class="edge">
<title>1&#45;&gt;2</title>
<path fill="none" stroke="#c0c0c0" stroke-width="2" d="M925.7861,-431.9152C931.653,-421.6161 938.7601,-408.3419 944,-396 974.7146,-323.6562 1000.0639,-234.2491 1011.8632,-189.8045"/>
<polygon fill="#c0c0c0" stroke="#c0c0c0" stroke-width="2" points="1015.2794,-190.5754 1014.4355,-180.0142 1008.5092,-188.7965 1015.2794,-190.5754"/>
</g>
<!-- 3 -->
<g id="node4" class="node">
<title>3</title>
<path fill="none" stroke="#d8a456" stroke-width="2" d="M561,-396C561,-396 531,-396 531,-396 525,-396 519,-390 519,-384 519,-384 519,-372 519,-372 519,-366 525,-360 531,-360 531,-360 561,-360 561,-360 567,-360 573,-366 573,-372 573,-372 573,-384 573,-384 573,-390 567,-396 561,-396"/>
<text text-anchor="middle" x="546" y="-375.5" font-family="sans" font-size="10.00" fill="#000000">skesa</text>
</g>
<!-- 1&#45;&gt;3 -->
<g id="edge22" class="edge">
<title>1&#45;&gt;3</title>
<path fill="none" stroke="#c0c0c0" stroke-width="2" d="M887.8665,-444.7057C822.6926,-431.9888 657.2411,-399.7056 583.0206,-385.2235"/>
<polygon fill="#c0c0c0" stroke="#c0c0c0" stroke-width="2" points="583.6584,-381.7821 573.1732,-383.3021 582.3178,-388.6525 583.6584,-381.7821"/>
</g>
<!-- 5 -->
<g id="node6" class="node">
<title>5</title>
<path fill="none" stroke="#c6d856" stroke-width="2" d="M881,-324C881,-324 843,-324 843,-324 837,-324 831,-318 831,-312 831,-312 831,-300 831,-300 831,-294 837,-288 843,-288 843,-288 881,-288 881,-288 887,-288 893,-294 893,-300 893,-300 893,-312 893,-312 893,-318 887,-324 881,-324"/>
<text text-anchor="middle" x="862" y="-303.5" font-family="sans" font-size="10.00" fill="#000000">coverage</text>
</g>
<!-- 1&#45;&gt;5 -->
<g id="edge25" class="edge">
<title>1&#45;&gt;5</title>
<path fill="none" stroke="#c0c0c0" stroke-width="2" d="M908.2875,-431.7623C899.168,-406.9846 882.7846,-362.4714 872.1561,-333.5939"/>
<polygon fill="#c0c0c0" stroke="#c0c0c0" stroke-width="2" points="875.3967,-332.2652 868.658,-324.0896 868.8275,-334.6831 875.3967,-332.2652"/>
</g>
<!-- 11 -->
<g id="node12" class="node">
<title>11</title>
<path fill="none" stroke="#56a2d8" stroke-width="2" d="M1098.5,-252C1098.5,-252 1039.5,-252 1039.5,-252 1033.5,-252 1027.5,-246 1027.5,-240 1027.5,-240 1027.5,-228 1027.5,-228 1027.5,-222 1033.5,-216 1039.5,-216 1039.5,-216 1098.5,-216 1098.5,-216 1104.5,-216 1110.5,-222 1110.5,-228 1110.5,-228 1110.5,-240 1110.5,-240 1110.5,-246 1104.5,-252 1098.5,-252"/>
<text text-anchor="middle" x="1069" y="-231.5" font-family="sans" font-size="10.00" fill="#000000">multiqc_fastp</text>
</g>
<!-- 1&#45;&gt;11 -->
<g id="edge31" class="edge">
<title>1&#45;&gt;11</title>
<path fill="none" stroke="#c0c0c0" stroke-width="2" d="M942.0129,-438.958C961.2572,-429.8998 986.5317,-415.4079 1003,-396 1036.7442,-356.2324 1054.9162,-296.9163 1063.2231,-262.1757"/>
<polygon fill="#c0c0c0" stroke="#c0c0c0" stroke-width="2" points="1066.6797,-262.7599 1065.4907,-252.232 1059.8549,-261.2035 1066.6797,-262.7599"/>
</g>
<!-- 17 -->
<g id="node18" class="node">
<title>17</title>
<path fill="none" stroke="#97d856" stroke-width="2" d="M942.5,-108C942.5,-108 903.5,-108 903.5,-108 897.5,-108 891.5,-102 891.5,-96 891.5,-96 891.5,-84 891.5,-84 891.5,-78 897.5,-72 903.5,-72 903.5,-72 942.5,-72 942.5,-72 948.5,-72 954.5,-78 954.5,-84 954.5,-84 954.5,-96 954.5,-96 954.5,-102 948.5,-108 942.5,-108"/>
<text text-anchor="middle" x="923" y="-87.5" font-family="sans" font-size="10.00" fill="#000000">summary</text>
</g>
<!-- 1&#45;&gt;17 -->
<g id="edge38" class="edge">
<title>1&#45;&gt;17</title>
<path fill="none" stroke="#c0c0c0" stroke-width="2" d="M915.4077,-431.6526C916.7104,-373.0336 920.7788,-189.9552 922.3613,-118.7429"/>
<polygon fill="#c0c0c0" stroke="#c0c0c0" stroke-width="2" points="925.87,-118.3858 922.5931,-108.3104 918.8717,-118.2302 925.87,-118.3858"/>
</g>
<!-- 2&#45;&gt;0 -->
<g id="edge14" class="edge">
<title>2&#45;&gt;0</title>
<path fill="none" stroke="#c0c0c0" stroke-width="2" d="M1020.1992,-143.7134C1020.4592,-122.9901 1017.3412,-89.7896 997,-72 961.7399,-41.1629 638.1684,-24.4025 527.1684,-19.5228"/>
<polygon fill="#c0c0c0" stroke="#c0c0c0" stroke-width="2" points="527.2488,-16.0231 517.1069,-19.0876 526.9463,-23.0165 527.2488,-16.0231"/>
</g>
<!-- 2&#45;&gt;17 -->
<g id="edge40" class="edge">
<title>2&#45;&gt;17</title>
<path fill="none" stroke="#c0c0c0" stroke-width="2" d="M994.7751,-143.8314C982.8372,-134.8779 968.2744,-123.9558 955.394,-114.2955"/>
<polygon fill="#c0c0c0" stroke="#c0c0c0" stroke-width="2" points="957.3171,-111.3629 947.2171,-108.1628 953.1171,-116.9629 957.3171,-111.3629"/>
</g>
<!-- 3&#45;&gt;0 -->
<g id="edge4" class="edge">
<title>3&#45;&gt;0</title>
<path fill="none" stroke="#c0c0c0" stroke-width="2" d="M518.6877,-376.2402C413.1709,-368.7078 38,-334.8362 38,-234 38,-234 38,-234 38,-162 38,-107.8872 72.2138,-97.3904 120,-72 177.3223,-41.5427 370.8799,-25.7174 452.8408,-20.2501"/>
<polygon fill="#c0c0c0" stroke="#c0c0c0" stroke-width="2" points="453.2034,-23.734 462.9544,-19.5905 452.7478,-16.7488 453.2034,-23.734"/>
</g>
<!-- 4 -->
<g id="node5" class="node">
<title>4</title>
<path fill="none" stroke="#d88556" stroke-width="2" d="M591,-180C591,-180 561,-180 561,-180 555,-180 549,-174 549,-168 549,-168 549,-156 549,-156 549,-150 555,-144 561,-144 561,-144 591,-144 591,-144 597,-144 603,-150 603,-156 603,-156 603,-168 603,-168 603,-174 597,-180 591,-180"/>
<text text-anchor="middle" x="576" y="-159.5" font-family="sans" font-size="10.00" fill="#000000">mlst</text>
</g>
<!-- 3&#45;&gt;4 -->
<g id="edge23" class="edge">
<title>3&#45;&gt;4</title>
<path fill="none" stroke="#c0c0c0" stroke-width="2" d="M550.1537,-359.5759C552.3985,-349.1707 555.0931,-335.9033 557,-324 564.4856,-277.2741 570.2945,-222.521 573.426,-190.131"/>
<polygon fill="#c0c0c0" stroke="#c0c0c0" stroke-width="2" points="576.9224,-190.3339 574.384,-180.0477 569.9538,-189.6718 576.9224,-190.3339"/>
</g>
<!-- 3&#45;&gt;5 -->
<g id="edge24" class="edge">
<title>3&#45;&gt;5</title>
<path fill="none" stroke="#c0c0c0" stroke-width="2" d="M573.2155,-371.799C628.6364,-359.1715 754.8863,-330.4057 820.568,-315.4402"/>
<polygon fill="#c0c0c0" stroke="#c0c0c0" stroke-width="2" points="821.5968,-318.7956 830.5693,-313.1614 820.0416,-311.9705 821.5968,-318.7956"/>
</g>
<!-- 6 -->
<g id="node7" class="node">
<title>6</title>
<path fill="none" stroke="#d8bc56" stroke-width="2" d="M536,-324C536,-324 496,-324 496,-324 490,-324 484,-318 484,-312 484,-312 484,-300 484,-300 484,-294 490,-288 496,-288 496,-288 536,-288 536,-288 542,-288 548,-294 548,-300 548,-300 548,-312 548,-312 548,-318 542,-324 536,-324"/>
<text text-anchor="middle" x="516" y="-303.5" font-family="sans" font-size="10.00" fill="#000000">ska_fasta</text>
</g>
<!-- 3&#45;&gt;6 -->
<g id="edge26" class="edge">
<title>3&#45;&gt;6</title>
<path fill="none" stroke="#c0c0c0" stroke-width="2" d="M538.4297,-359.8314C535.1507,-351.9617 531.238,-342.5712 527.6055,-333.8533"/>
<polygon fill="#c0c0c0" stroke="#c0c0c0" stroke-width="2" points="530.7492,-332.2979 523.6722,-324.4133 524.2876,-334.9902 530.7492,-332.2979"/>
</g>
<!-- 8 -->
<g id="node9" class="node">
<title>8</title>
<path fill="none" stroke="#d85656" stroke-width="2" d="M679,-180C679,-180 647,-180 647,-180 641,-180 635,-174 635,-168 635,-168 635,-156 635,-156 635,-150 641,-144 647,-144 647,-144 679,-144 679,-144 685,-144 691,-150 691,-156 691,-156 691,-168 691,-168 691,-174 685,-180 679,-180"/>
<text text-anchor="middle" x="663" y="-159.5" font-family="sans" font-size="10.00" fill="#000000">abricate</text>
</g>
<!-- 3&#45;&gt;8 -->
<g id="edge28" class="edge">
<title>3&#45;&gt;8</title>
<path fill="none" stroke="#c0c0c0" stroke-width="2" d="M555.7741,-359.9555C576.3351,-321.9967 624.1556,-233.7127 648.3789,-188.9928"/>
<polygon fill="#c0c0c0" stroke="#c0c0c0" stroke-width="2" points="651.4861,-190.605 653.1714,-180.1451 645.331,-187.271 651.4861,-190.605"/>
</g>
<!-- 10 -->
<g id="node11" class="node">
<title>10</title>
<path fill="none" stroke="#56d87b" stroke-width="2" d="M794,-180C794,-180 764,-180 764,-180 758,-180 752,-174 752,-168 752,-168 752,-156 752,-156 752,-150 758,-144 764,-144 764,-144 794,-144 794,-144 800,-144 806,-150 806,-156 806,-156 806,-168 806,-168 806,-174 800,-180 794,-180"/>
<text text-anchor="middle" x="779" y="-159.5" font-family="sans" font-size="10.00" fill="#000000">quast</text>
</g>
<!-- 3&#45;&gt;10 -->
<g id="edge30" class="edge">
<title>3&#45;&gt;10</title>
<path fill="none" stroke="#c0c0c0" stroke-width="2" d="M565.4647,-359.9555C607.0106,-321.4409 704.4442,-231.1161 751.9715,-187.0564"/>
<polygon fill="#c0c0c0" stroke="#c0c0c0" stroke-width="2" points="754.4728,-189.5103 759.4268,-180.1451 749.7138,-184.3768 754.4728,-189.5103"/>
</g>
<!-- 13 -->
<g id="node14" class="node">
<title>13</title>
<path fill="none" stroke="#56b9d8" stroke-width="2" d="M131.5,-180C131.5,-180 78.5,-180 78.5,-180 72.5,-180 66.5,-174 66.5,-168 66.5,-168 66.5,-156 66.5,-156 66.5,-150 72.5,-144 78.5,-144 78.5,-144 131.5,-144 131.5,-144 137.5,-144 143.5,-150 143.5,-156 143.5,-156 143.5,-168 143.5,-168 143.5,-174 137.5,-180 131.5,-180"/>
<text text-anchor="middle" x="105" y="-159.5" font-family="sans" font-size="10.00" fill="#000000">poppunk_K2</text>
</g>
<!-- 3&#45;&gt;13 -->
<g id="edge33" class="edge">
<title>3&#45;&gt;13</title>
<path fill="none" stroke="#c0c0c0" stroke-width="2" d="M518.7228,-371.7374C483.815,-363.2306 421.8932,-346.4692 372,-324 283.1563,-283.9896 187.472,-220.3208 138.3328,-185.9264"/>
<polygon fill="#c0c0c0" stroke="#c0c0c0" stroke-width="2" points="140.1887,-182.9526 129.9966,-180.0591 136.1598,-188.6769 140.1887,-182.9526"/>
</g>
<!-- 14 -->
<g id="node15" class="node">
<title>14</title>
<path fill="none" stroke="#5673d8" stroke-width="2" d="M226.5,-180C226.5,-180 173.5,-180 173.5,-180 167.5,-180 161.5,-174 161.5,-168 161.5,-168 161.5,-156 161.5,-156 161.5,-150 167.5,-144 173.5,-144 173.5,-144 226.5,-144 226.5,-144 232.5,-144 238.5,-150 238.5,-156 238.5,-156 238.5,-168 238.5,-168 238.5,-174 232.5,-180 226.5,-180"/>
<text text-anchor="middle" x="200" y="-159.5" font-family="sans" font-size="10.00" fill="#000000">poppunk_K3</text>
</g>
<!-- 3&#45;&gt;14 -->
<g id="edge34" class="edge">
<title>3&#45;&gt;14</title>
<path fill="none" stroke="#c0c0c0" stroke-width="2" d="M518.6314,-366.5779C495.1225,-356.4065 460.599,-340.6022 432,-324 356.9201,-280.4148 274.9429,-219.807 231.3684,-186.4477"/>
<polygon fill="#c0c0c0" stroke="#c0c0c0" stroke-width="2" points="233.2403,-183.472 223.179,-180.1523 228.974,-189.0217 233.2403,-183.472"/>
</g>
<!-- 15 -->
<g id="node16" class="node">
<title>15</title>
<path fill="none" stroke="#afd856" stroke-width="2" d="M321.5,-180C321.5,-180 268.5,-180 268.5,-180 262.5,-180 256.5,-174 256.5,-168 256.5,-168 256.5,-156 256.5,-156 256.5,-150 262.5,-144 268.5,-144 268.5,-144 321.5,-144 321.5,-144 327.5,-144 333.5,-150 333.5,-156 333.5,-156 333.5,-168 333.5,-168 333.5,-174 327.5,-180 321.5,-180"/>
<text text-anchor="middle" x="295" y="-159.5" font-family="sans" font-size="10.00" fill="#000000">poppunk_K4</text>
</g>
<!-- 3&#45;&gt;15 -->
<g id="edge35" class="edge">
<title>3&#45;&gt;15</title>
<path fill="none" stroke="#c0c0c0" stroke-width="2" d="M521.2958,-359.9939C507.4649,-349.7194 490.0304,-336.4436 475,-324 418.6992,-277.3887 355.8533,-219.3733 321.3172,-186.9395"/>
<polygon fill="#c0c0c0" stroke="#c0c0c0" stroke-width="2" points="323.6628,-184.3408 313.9821,-180.0355 318.8651,-189.4381 323.6628,-184.3408"/>
</g>
<!-- 4&#45;&gt;0 -->
<g id="edge3" class="edge">
<title>4&#45;&gt;0</title>
<path fill="none" stroke="#c0c0c0" stroke-width="2" d="M568.7397,-143.7811C560.983,-125.1386 547.7881,-95.6349 533,-72 527.0267,-62.4533 519.6449,-52.6393 512.6935,-44.0406"/>
<polygon fill="#c0c0c0" stroke="#c0c0c0" stroke-width="2" points="515.292,-41.6908 506.2205,-36.2172 509.8987,-46.1531 515.292,-41.6908"/>
</g>
<!-- 4&#45;&gt;17 -->
<g id="edge39" class="edge">
<title>4&#45;&gt;17</title>
<path fill="none" stroke="#c0c0c0" stroke-width="2" d="M603.1952,-151.0637C610.508,-148.44 618.4772,-145.862 626,-144 734.3732,-117.1767 769.4885,-138.1261 881.1193,-107.7903"/>
<polygon fill="#c0c0c0" stroke="#c0c0c0" stroke-width="2" points="882.3911,-111.069 891.0787,-105.0047 880.5055,-104.3278 882.3911,-111.069"/>
</g>
<!-- 5&#45;&gt;0 -->
<g id="edge7" class="edge">
<title>5&#45;&gt;0</title>
<path fill="none" stroke="#c0c0c0" stroke-width="2" d="M881.8549,-287.7444C925.7015,-245.2975 1022.3619,-138.5245 963,-72 934.1047,-39.6181 634.2253,-24.0221 527.4735,-19.4656"/>
<polygon fill="#c0c0c0" stroke="#c0c0c0" stroke-width="2" points="527.3145,-15.956 517.177,-19.0349 527.0219,-22.9498 527.3145,-15.956"/>
</g>
<!-- 5&#45;&gt;17 -->
<g id="edge42" class="edge">
<title>5&#45;&gt;17</title>
<path fill="none" stroke="#c0c0c0" stroke-width="2" d="M864.314,-287.8771C866.8637,-269.5627 871.4849,-240.5419 878,-216 887.2076,-181.3155 901.6906,-142.6057 911.7285,-117.3609"/>
<polygon fill="#c0c0c0" stroke="#c0c0c0" stroke-width="2" points="914.9848,-118.6442 915.4681,-108.0604 908.4901,-116.0327 914.9848,-118.6442"/>
</g>
<!-- 6&#45;&gt;0 -->
<g id="edge5" class="edge">
<title>6&#45;&gt;0</title>
<path fill="none" stroke="#c0c0c0" stroke-width="2" d="M515.2499,-287.7404C513.502,-248.2667 508.5615,-152.0807 499,-72 498.0017,-63.6392 496.6165,-54.5979 495.2318,-46.3485"/>
<polygon fill="#c0c0c0" stroke="#c0c0c0" stroke-width="2" points="498.6691,-45.6859 493.5071,-36.4337 491.7727,-46.8856 498.6691,-45.6859"/>
</g>
<!-- 7 -->
<g id="node8" class="node">
<title>7</title>
<path fill="none" stroke="#56d8c9" stroke-width="2" d="M457.5,-252C457.5,-252 418.5,-252 418.5,-252 412.5,-252 406.5,-246 406.5,-240 406.5,-240 406.5,-228 406.5,-228 406.5,-222 412.5,-216 418.5,-216 418.5,-216 457.5,-216 457.5,-216 463.5,-216 469.5,-222 469.5,-228 469.5,-228 469.5,-240 469.5,-240 469.5,-246 463.5,-252 457.5,-252"/>
<text text-anchor="middle" x="438" y="-231.5" font-family="sans" font-size="10.00" fill="#000000">ska_align</text>
</g>
<!-- 6&#45;&gt;7 -->
<g id="edge27" class="edge">
<title>6&#45;&gt;7</title>
<path fill="none" stroke="#c0c0c0" stroke-width="2" d="M496.3173,-287.8314C486.8949,-279.1337 475.4599,-268.5783 465.2204,-259.1265"/>
<polygon fill="#c0c0c0" stroke="#c0c0c0" stroke-width="2" points="467.3984,-256.3738 457.6764,-252.1628 462.6505,-261.5175 467.3984,-256.3738"/>
</g>
<!-- 7&#45;&gt;0 -->
<g id="edge15" class="edge">
<title>7&#45;&gt;0</title>
<path fill="none" stroke="#c0c0c0" stroke-width="2" d="M418.2861,-215.9125C384.2311,-184.4367 317.4786,-121.6351 312,-108 306.0346,-93.1536 302.469,-84.8514 312,-72 328.8113,-49.3321 405.6388,-32.4455 452.6953,-24.0123"/>
<polygon fill="#c0c0c0" stroke="#c0c0c0" stroke-width="2" points="453.5729,-27.4121 462.8223,-22.2451 452.3695,-20.5163 453.5729,-27.4121"/>
</g>
<!-- 16 -->
<g id="node17" class="node">
<title>16</title>
<path fill="none" stroke="#56d0d8" stroke-width="2" d="M432,-180C432,-180 402,-180 402,-180 396,-180 390,-174 390,-168 390,-168 390,-156 390,-156 390,-150 396,-144 402,-144 402,-144 432,-144 432,-144 438,-144 444,-150 444,-156 444,-156 444,-168 444,-168 444,-174 438,-180 432,-180"/>
<text text-anchor="middle" x="417" y="-159.5" font-family="sans" font-size="10.00" fill="#000000">iqtree</text>
</g>
<!-- 7&#45;&gt;16 -->
<g id="edge36" class="edge">
<title>7&#45;&gt;16</title>
<path fill="none" stroke="#c0c0c0" stroke-width="2" d="M432.7008,-215.8314C430.4302,-208.0463 427.7254,-198.7729 425.206,-190.1347"/>
<polygon fill="#c0c0c0" stroke="#c0c0c0" stroke-width="2" points="428.5306,-189.0332 422.3705,-180.4133 421.8106,-190.9933 428.5306,-189.0332"/>
</g>
<!-- 20 -->
<g id="node21" class="node">
<title>20</title>
<path fill="none" stroke="#d8d356" stroke-width="2" d="M478.5,-108C478.5,-108 445.5,-108 445.5,-108 439.5,-108 433.5,-102 433.5,-96 433.5,-96 433.5,-84 433.5,-84 433.5,-78 439.5,-72 445.5,-72 445.5,-72 478.5,-72 478.5,-72 484.5,-72 490.5,-78 490.5,-84 490.5,-84 490.5,-96 490.5,-96 490.5,-102 484.5,-108 478.5,-108"/>
<text text-anchor="middle" x="462" y="-87.5" font-family="sans" font-size="10.00" fill="#000000">snpdists</text>
</g>
<!-- 7&#45;&gt;20 -->
<g id="edge47" class="edge">
<title>7&#45;&gt;20</title>
<path fill="none" stroke="#c0c0c0" stroke-width="2" d="M443.9283,-215.6893C447.0721,-205.3196 450.7412,-192.0499 453,-180 456.8516,-159.4534 459.1312,-135.9382 460.4322,-118.0981"/>
<polygon fill="#c0c0c0" stroke="#c0c0c0" stroke-width="2" points="463.9284,-118.2703 461.1053,-108.0586 456.9441,-117.802 463.9284,-118.2703"/>
</g>
<!-- 8&#45;&gt;0 -->
<g id="edge1" class="edge">
<title>8&#45;&gt;0</title>
<path fill="none" stroke="#c0c0c0" stroke-width="2" d="M642.0167,-143.9106C620.7275,-125.6223 586.7617,-96.6214 557,-72 545.2362,-62.268 532.1874,-51.7005 520.7543,-42.5155"/>
<polygon fill="#c0c0c0" stroke="#c0c0c0" stroke-width="2" points="522.7478,-39.6278 512.7562,-36.1035 518.3692,-45.0893 522.7478,-39.6278"/>
</g>
<!-- 9 -->
<g id="node10" class="node">
<title>9</title>
<path fill="none" stroke="#61d856" stroke-width="2" d="M719,-108C719,-108 635,-108 635,-108 629,-108 623,-102 623,-96 623,-96 623,-84 623,-84 623,-78 629,-72 635,-72 635,-72 719,-72 719,-72 725,-72 731,-78 731,-84 731,-84 731,-96 731,-96 731,-102 725,-108 719,-108"/>
<text text-anchor="middle" x="677" y="-87.5" font-family="sans" font-size="10.00" fill="#000000">abricate_summary</text>
</g>
<!-- 8&#45;&gt;9 -->
<g id="edge29" class="edge">
<title>8&#45;&gt;9</title>
<path fill="none" stroke="#c0c0c0" stroke-width="2" d="M666.5328,-143.8314C668.0301,-136.131 669.8105,-126.9743 671.4745,-118.4166"/>
<polygon fill="#c0c0c0" stroke="#c0c0c0" stroke-width="2" points="674.9465,-118.8975 673.4196,-108.4133 668.0752,-117.5614 674.9465,-118.8975"/>
</g>
<!-- 8&#45;&gt;17 -->
<g id="edge37" class="edge">
<title>8&#45;&gt;17</title>
<path fill="none" stroke="#c0c0c0" stroke-width="2" d="M691.3382,-155.6521C742.1122,-144.1723 846.5929,-120.0377 882,-108 882.0966,-107.9672 882.1933,-107.9342 882.2901,-107.9011"/>
<polygon fill="#c0c0c0" stroke="#c0c0c0" stroke-width="2" points="883.2762,-111.2686 891.429,-104.5023 880.8362,-104.7076 883.2762,-111.2686"/>
</g>
<!-- 9&#45;&gt;0 -->
<g id="edge10" class="edge">
<title>9&#45;&gt;0</title>
<path fill="none" stroke="#c0c0c0" stroke-width="2" d="M629.812,-71.8314C597.8303,-59.5175 556.1772,-43.48 526.6789,-32.1224"/>
<polygon fill="#c0c0c0" stroke="#c0c0c0" stroke-width="2" points="527.7625,-28.7891 517.1727,-28.4622 525.2472,-35.3217 527.7625,-28.7891"/>
</g>
<!-- 10&#45;&gt;0 -->
<g id="edge12" class="edge">
<title>10&#45;&gt;0</title>
<path fill="none" stroke="#c0c0c0" stroke-width="2" d="M776.182,-143.8415C771.9987,-123.2386 762.1132,-90.151 740,-72 707.7982,-45.568 588.4861,-28.8721 527.066,-21.8405"/>
<polygon fill="#c0c0c0" stroke="#c0c0c0" stroke-width="2" points="527.3426,-18.3497 517.0157,-20.7171 526.565,-25.3064 527.3426,-18.3497"/>
</g>
<!-- 12 -->
<g id="node13" class="node">
<title>12</title>
<path fill="none" stroke="#56d863" stroke-width="2" d="M861,-108C861,-108 799,-108 799,-108 793,-108 787,-102 787,-96 787,-96 787,-84 787,-84 787,-78 793,-72 799,-72 799,-72 861,-72 861,-72 867,-72 873,-78 873,-84 873,-84 873,-96 873,-96 873,-102 867,-108 861,-108"/>
<text text-anchor="middle" x="830" y="-87.5" font-family="sans" font-size="10.00" fill="#000000">multiqc_quast</text>
</g>
<!-- 10&#45;&gt;12 -->
<g id="edge32" class="edge">
<title>10&#45;&gt;12</title>
<path fill="none" stroke="#c0c0c0" stroke-width="2" d="M791.8695,-143.8314C797.6835,-135.6232 804.6696,-125.7606 811.0646,-116.7323"/>
<polygon fill="#c0c0c0" stroke="#c0c0c0" stroke-width="2" points="814.0331,-118.5966 816.9573,-108.4133 808.321,-114.5505 814.0331,-118.5966"/>
</g>
<!-- 10&#45;&gt;17 -->
<g id="edge41" class="edge">
<title>10&#45;&gt;17</title>
<path fill="none" stroke="#c0c0c0" stroke-width="2" d="M806.0853,-148.4574C827.5412,-137.7294 857.8571,-122.5714 882.2419,-110.3791"/>
<polygon fill="#c0c0c0" stroke="#c0c0c0" stroke-width="2" points="883.8873,-113.4695 891.2663,-105.8668 880.7568,-107.2085 883.8873,-113.4695"/>
</g>
<!-- 11&#45;&gt;0 -->
<g id="edge18" class="edge">
<title>11&#45;&gt;0</title>
<path fill="none" stroke="#c0c0c0" stroke-width="2" d="M1070.126,-215.8315C1071.1612,-180.8203 1067.6493,-104.5925 1021,-72 980.625,-43.7911 641.0519,-25.1912 527.1084,-19.6967"/>
<polygon fill="#c0c0c0" stroke="#c0c0c0" stroke-width="2" points="527.2679,-16.2004 517.1126,-19.2206 526.9347,-23.1925 527.2679,-16.2004"/>
</g>
<!-- 12&#45;&gt;0 -->
<g id="edge11" class="edge">
<title>12&#45;&gt;0</title>
<path fill="none" stroke="#c0c0c0" stroke-width="2" d="M786.8925,-75.8019C782.2252,-74.4399 777.5279,-73.1427 773,-72 685.9314,-50.0261 581.801,-32.3146 527.361,-23.6942"/>
<polygon fill="#c0c0c0" stroke="#c0c0c0" stroke-width="2" points="527.577,-20.1853 517.1553,-22.0927 526.4918,-27.1007 527.577,-20.1853"/>
</g>
<!-- 13&#45;&gt;0 -->
<g id="edge17" class="edge">
<title>13&#45;&gt;0</title>
<path fill="none" stroke="#c0c0c0" stroke-width="2" d="M109.423,-143.9053C115.5245,-123.0392 128.6406,-89.3853 153,-72 200.6178,-38.0151 375.2788,-24.3299 452.6659,-19.8483"/>
<polygon fill="#c0c0c0" stroke="#c0c0c0" stroke-width="2" points="453.1274,-23.3281 462.9167,-19.2759 452.737,-16.339 453.1274,-23.3281"/>
</g>
<!-- 19 -->
<g id="node20" class="node">
<title>19</title>
<path fill="none" stroke="#d86e56" stroke-width="2" d="M215,-108C215,-108 185,-108 185,-108 179,-108 173,-102 173,-96 173,-96 173,-84 173,-84 173,-78 179,-72 185,-72 185,-72 215,-72 215,-72 221,-72 227,-78 227,-84 227,-84 227,-96 227,-96 227,-102 221,-108 215,-108"/>
<text text-anchor="middle" x="200" y="-87.5" font-family="sans" font-size="10.00" fill="#000000">zip</text>
</g>
<!-- 13&#45;&gt;19 -->
<g id="edge46" class="edge">
<title>13&#45;&gt;19</title>
<path fill="none" stroke="#c0c0c0" stroke-width="2" d="M128.9725,-143.8314C140.7861,-134.8779 155.1972,-123.9558 167.9435,-114.2955"/>
<polygon fill="#c0c0c0" stroke="#c0c0c0" stroke-width="2" points="170.1795,-116.9925 176.0352,-108.1628 165.9514,-111.4137 170.1795,-116.9925"/>
</g>
<!-- 14&#45;&gt;0 -->
<g id="edge20" class="edge">
<title>14&#45;&gt;0</title>
<path fill="none" stroke="#c0c0c0" stroke-width="2" d="M182.7797,-143.9963C166.1877,-124.4441 146.0414,-93.178 164,-72 182.5313,-50.1466 370.6769,-29.515 452.4198,-21.5072"/>
<polygon fill="#c0c0c0" stroke="#c0c0c0" stroke-width="2" points="453.1455,-24.9534 462.7617,-20.506 452.4709,-17.986 453.1455,-24.9534"/>
</g>
<!-- 14&#45;&gt;19 -->
<g id="edge44" class="edge">
<title>14&#45;&gt;19</title>
<path fill="none" stroke="#c0c0c0" stroke-width="2" d="M200,-143.8314C200,-136.131 200,-126.9743 200,-118.4166"/>
<polygon fill="#c0c0c0" stroke="#c0c0c0" stroke-width="2" points="203.5001,-118.4132 200,-108.4133 196.5001,-118.4133 203.5001,-118.4132"/>
</g>
<!-- 15&#45;&gt;0 -->
<g id="edge8" class="edge">
<title>15&#45;&gt;0</title>
<path fill="none" stroke="#c0c0c0" stroke-width="2" d="M284.2852,-143.8092C274.231,-124.0931 262.9427,-92.6843 279,-72 300.1298,-44.7815 398.1177,-28.9488 452.8191,-22.0856"/>
<polygon fill="#c0c0c0" stroke="#c0c0c0" stroke-width="2" points="453.3193,-25.5506 462.8239,-20.8697 452.4747,-18.6018 453.3193,-25.5506"/>
</g>
<!-- 15&#45;&gt;19 -->
<g id="edge45" class="edge">
<title>15&#45;&gt;19</title>
<path fill="none" stroke="#c0c0c0" stroke-width="2" d="M271.0275,-143.8314C259.2139,-134.8779 244.8028,-123.9558 232.0565,-114.2955"/>
<polygon fill="#c0c0c0" stroke="#c0c0c0" stroke-width="2" points="234.0486,-111.4137 223.9648,-108.1628 229.8205,-116.9925 234.0486,-111.4137"/>
</g>
<!-- 16&#45;&gt;0 -->
<g id="edge16" class="edge">
<title>16&#45;&gt;0</title>
<path fill="none" stroke="#c0c0c0" stroke-width="2" d="M414.4177,-143.9618C412.5691,-124.9385 412.1731,-94.643 424,-72 430.9495,-58.6949 442.7471,-47.4584 454.4624,-38.7391"/>
<polygon fill="#c0c0c0" stroke="#c0c0c0" stroke-width="2" points="456.713,-41.4364 462.9079,-32.8413 452.7052,-35.6972 456.713,-41.4364"/>
</g>
<!-- 18 -->
<g id="node19" class="node">
<title>18</title>
<path fill="none" stroke="#568ad8" stroke-width="2" d="M364.5,-108C364.5,-108 333.5,-108 333.5,-108 327.5,-108 321.5,-102 321.5,-96 321.5,-96 321.5,-84 321.5,-84 321.5,-78 327.5,-72 333.5,-72 333.5,-72 364.5,-72 364.5,-72 370.5,-72 376.5,-78 376.5,-84 376.5,-84 376.5,-96 376.5,-96 376.5,-102 370.5,-108 364.5,-108"/>
<text text-anchor="middle" x="349" y="-87.5" font-family="sans" font-size="10.00" fill="#000000">plottree</text>
</g>
<!-- 16&#45;&gt;18 -->
<g id="edge43" class="edge">
<title>16&#45;&gt;18</title>
<path fill="none" stroke="#c0c0c0" stroke-width="2" d="M399.8407,-143.8314C391.8489,-135.3694 382.1962,-125.1489 373.4584,-115.8971"/>
<polygon fill="#c0c0c0" stroke="#c0c0c0" stroke-width="2" points="375.8011,-113.2802 366.3903,-108.4133 370.712,-118.0866 375.8011,-113.2802"/>
</g>
<!-- 17&#45;&gt;0 -->
<g id="edge9" class="edge">
<title>17&#45;&gt;0</title>
<path fill="none" stroke="#c0c0c0" stroke-width="2" d="M891.0812,-74.9863C888.0507,-73.8658 884.9924,-72.8453 882,-72 754.9756,-36.1203 597.8093,-23.6802 527.2992,-19.7063"/>
<polygon fill="#c0c0c0" stroke="#c0c0c0" stroke-width="2" points="527.315,-16.2022 517.1413,-19.1593 526.9385,-23.1921 527.315,-16.2022"/>
</g>
<!-- 18&#45;&gt;0 -->
<g id="edge19" class="edge">
<title>18&#45;&gt;0</title>
<path fill="none" stroke="#c0c0c0" stroke-width="2" d="M376.5209,-75.9468C398.454,-64.7469 429.3617,-48.9642 453.3834,-36.6978"/>
<polygon fill="#c0c0c0" stroke="#c0c0c0" stroke-width="2" points="455.2341,-39.6827 462.5485,-32.0178 452.0507,-33.4485 455.2341,-39.6827"/>
</g>
<!-- 19&#45;&gt;0 -->
<g id="edge2" class="edge">
<title>19&#45;&gt;0</title>
<path fill="none" stroke="#c0c0c0" stroke-width="2" d="M227.0517,-77.2177C231.6465,-75.3094 236.4153,-73.4869 241,-72 314.4578,-48.1755 403.5275,-31.7319 452.7527,-23.6824"/>
<polygon fill="#c0c0c0" stroke="#c0c0c0" stroke-width="2" points="453.3152,-27.137 462.632,-22.0924 452.2029,-20.2259 453.3152,-27.137"/>
</g>
<!-- 20&#45;&gt;0 -->
<g id="edge6" class="edge">
<title>20&#45;&gt;0</title>
<path fill="none" stroke="#c0c0c0" stroke-width="2" d="M469.0656,-71.8314C472.126,-63.9617 475.7779,-54.5712 479.1682,-45.8533"/>
<polygon fill="#c0c0c0" stroke="#c0c0c0" stroke-width="2" points="482.4768,-47.0019 482.8393,-36.4133 475.9527,-44.4647 482.4768,-47.0019"/>
</g>
</g>
</svg>
